# xmcd CD database file
#
# Track frame offsets:
#	150
#	19197
#	34187
#	56067
#	76212
#	97442
#	120727
#	138532
#	153535
#	174122
#	190727
#	210372
#	230995
#	241155
#	268532
#	287177
#	296547
#	306265
#	318362
#	339855
#
# Disc length: 4733 seconds
#
# Revision: 1
# Processed by: cddbd v1.5.2PL0 Copyright (c) Steve Scherf et al.
# Submitted via: CDex 1.51
#
DISCID=23127b14
DTITLE=Paul Quinichette - The Kid From Denver
DYEAR=1900
DGENRE=Jazz
TTITLE0=Come Rain Or Come Shine
TTITLE1=Pardon The Blues, Please
TTITLE2=Start Here
TTITLE3=Pennies From Heaven
TTITLE4=Happy Feeling
TTITLE5=Honeysuckle Rose
TTITLE6=Big Deal
TTITLE7=The Kid From Denver
TTITLE8=These Foolish Things
TTITLE9=Along About This Time Of The Year
TTITLE10=Colonel Hodge
TTITLE11=If I'm Lucky
TTITLE12=No Moon At all
TTITLE13=The Creeper
TTITLE14=Big George
TTITLE15=I nver Knew
TTITLE16=You Leave Me Breathless
TTITLE17=I'd Know You Anywhere
TTITLE18=Suitcase
TTITLE19=Minor Scene
EXTD=
EXTT0=
EXTT1=
EXTT2=
EXTT3=
EXTT4=
EXTT5=
EXTT6=
EXTT7=
EXTT8=
EXTT9=
EXTT10=
EXTT11=
EXTT12=
EXTT13=
EXTT14=
EXTT15=
EXTT16=
EXTT17=
EXTT18=
EXTT19=
PLAYORDER=
